<?xml version="1.0" encoding="utf-8"?>
<!-- Generator: Adobe Illustrator 24.1.3, SVG Export Plug-In . SVG Version: 6.00 Build 0)  -->
<svg version="1.1" id="Calque_1" xmlns="http://www.w3.org/2000/svg" xmlns:xlink="http://www.w3.org/1999/xlink" x="0px" y="0px"
	 viewBox="0 0 595.28 841.89" style="enable-background:new 0 0 595.28 841.89;" xml:space="preserve">
<style type="text/css">
	.st0{fill:#1D71B8;}
	.st1{fill:#FFFFFF;}
	.st2{fill:#71B2D8;}
	.st3{fill:#EDEDED;}
</style>
<g>
	<g>
		<ellipse class="st0" cx="273.09" cy="460.42" rx="6.73" ry="6.51"/>
		<path d="M273.09,455.91c2.61,0,4.73,2.02,4.73,4.51c0,2.48-2.12,4.51-4.73,4.51s-4.73-2.02-4.73-4.51
			C268.36,457.93,270.49,455.91,273.09,455.91 M273.09,453.91c-3.72,0-6.73,2.91-6.73,6.51c0,3.59,3.01,6.51,6.73,6.51
			s6.73-2.91,6.73-6.51C279.82,456.82,276.81,453.91,273.09,453.91L273.09,453.91z"/>
	</g>
	<g>
		<ellipse class="st0" cx="314.73" cy="460.42" rx="12.04" ry="11.65"/>
		<path d="M314.73,450.77c5.54,0,10.04,4.33,10.04,9.65s-4.5,9.65-10.04,9.65s-10.04-4.33-10.04-9.65S309.19,450.77,314.73,450.77
			 M314.73,448.77c-6.65,0-12.04,5.21-12.04,11.65s5.39,11.65,12.04,11.65c6.65,0,12.04-5.21,12.04-11.65
			S321.38,448.77,314.73,448.77L314.73,448.77z"/>
	</g>
	<g>
		<ellipse class="st1" cx="299.1" cy="521.28" rx="14.75" ry="14.27"/>
		<path d="M299.1,536.54c-8.69,0-15.75-6.85-15.75-15.27c0-8.42,7.07-15.27,15.75-15.27s15.75,6.85,15.75,15.27
			C314.86,529.7,307.79,536.54,299.1,536.54z M299.1,508.01c-7.58,0-13.75,5.95-13.75,13.27s6.17,13.27,13.75,13.27
			c7.58,0,13.75-5.95,13.75-13.27S306.69,508.01,299.1,508.01z"/>
	</g>
	<g>
		<ellipse class="st1" cx="296.1" cy="432.23" rx="3.82" ry="3.69"/>
		<path d="M296.1,436.92c-2.66,0-4.82-2.11-4.82-4.69s2.16-4.69,4.82-4.69c2.66,0,4.82,2.11,4.82,4.69S298.76,436.92,296.1,436.92z
			 M296.1,429.54c-1.55,0-2.82,1.21-2.82,2.69s1.26,2.69,2.82,2.69s2.82-1.21,2.82-2.69S297.65,429.54,296.1,429.54z"/>
	</g>
	<g>
		<ellipse class="st1" cx="293.81" cy="481.53" rx="5.29" ry="5.12"/>
		<path d="M293.81,487.65c-3.47,0-6.29-2.75-6.29-6.12c0-3.37,2.82-6.12,6.29-6.12c3.47,0,6.29,2.75,6.29,6.12
			C300.1,484.9,297.28,487.65,293.81,487.65z M293.81,477.41c-2.37,0-4.29,1.85-4.29,4.12s1.93,4.12,4.29,4.12
			c2.37,0,4.29-1.85,4.29-4.12S296.18,477.41,293.81,477.41z"/>
	</g>
	<g>
		<ellipse class="st1" cx="273.09" cy="498.55" rx="5.29" ry="5.12"/>
		<path d="M273.09,504.67c-3.47,0-6.29-2.75-6.29-6.12s2.82-6.12,6.29-6.12c3.47,0,6.29,2.75,6.29,6.12S276.56,504.67,273.09,504.67
			z M273.09,494.43c-2.37,0-4.29,1.85-4.29,4.12s1.93,4.12,4.29,4.12c2.37,0,4.29-1.85,4.29-4.12S275.46,494.43,273.09,494.43z"/>
	</g>
	<g>
		<ellipse class="st0" cx="326.77" cy="488.31" rx="7.92" ry="7.66"/>
		<path d="M326.77,482.65c3.27,0,5.92,2.54,5.92,5.66s-2.66,5.66-5.92,5.66s-5.92-2.54-5.92-5.66S323.5,482.65,326.77,482.65
			 M326.77,480.65c-4.38,0-7.92,3.43-7.92,7.66c0,4.23,3.55,7.66,7.92,7.66s7.92-3.43,7.92-7.66
			C334.69,484.08,331.15,480.65,326.77,480.65L326.77,480.65z"/>
	</g>
	<g>
		<path class="st1" d="M322.19,420.26l0.35,0.49l25.02,35.73c0,0,46.14-32.3,62.18-43.54c15.97-11.18,51.57-39.16,28.35-73.1
			l0.01-0.01c-0.06-0.08-0.12-0.16-0.18-0.24c-0.06-0.08-0.11-0.17-0.17-0.25l-0.01,0.01c-23.95-33.43-62.42-9.54-78.38,1.64
			c-16.04,11.23-62.18,43.54-62.18,43.54L322.19,420.26z"/>
		<path d="M406.21,324.23c12.1,0,22.16,5.48,29.9,16.29l0.13,0.18l0.19,0.28c15.6,22.8,6.24,46.46-27.85,70.33l-60.54,42.39
			l-23.87-34.09l-0.35-0.49l-23.87-34.09l60.54-42.39C378.19,330.25,393.14,324.23,406.21,324.23 M406.21,322.23
			c-18.39,0-36.95,11.83-46.85,18.76c-16.04,11.23-62.18,43.54-62.18,43.54l25.02,35.73l0.35,0.49l25.02,35.73
			c0,0,46.14-32.3,62.18-43.54c15.97-11.18,51.57-39.16,28.35-73.1l0.01-0.01c-0.06-0.08-0.12-0.16-0.18-0.24
			c-0.06-0.08-0.11-0.17-0.17-0.25l-0.01,0.01C428.65,326.66,417.46,322.23,406.21,322.23L406.21,322.23z"/>
	</g>
	<g>
		<path class="st0" d="M272.16,420.26l-0.35,0.49l-25.02,35.73c0,0-46.14-32.3-62.18-43.54c-15.97-11.18-51.57-39.16-28.35-73.1
			l-0.01-0.01c0.06-0.08,0.12-0.16,0.18-0.24c0.06-0.08,0.11-0.17,0.17-0.25l0.01,0.01c23.95-33.43,62.42-9.54,78.38,1.64
			c16.04,11.23,62.18,43.54,62.18,43.54L272.16,420.26z"/>
		<path d="M188.14,322.23l0,2h0c13.07,0,28.02,6.02,45.71,18.4l60.54,42.39l-23.87,34.09l-0.35,0.49l-23.87,34.09l-60.54-42.39
			c-34.08-23.86-43.45-47.53-27.85-70.33l0.13-0.19l0.19-0.27c7.74-10.81,17.8-16.29,29.9-16.29L188.14,322.23 M188.14,322.23
			c-11.25,0-22.44,4.43-31.53,17.12l-0.01-0.01c-0.06,0.08-0.11,0.17-0.17,0.25c-0.06,0.08-0.12,0.16-0.18,0.24l0.01,0.01
			c-23.22,33.93,12.38,61.92,28.35,73.1c16.04,11.23,62.18,43.54,62.18,43.54l25.02-35.73l0.35-0.49l25.02-35.73
			c0,0-46.14-32.3-62.18-43.54C225.09,334.06,206.53,322.23,188.14,322.23L188.14,322.23z"/>
	</g>
	<g>
		<path class="st2" d="M284.78,398.45l-0.07,0.1l-5.33,7.61c0,0-34.03-23.83-45.87-32.12c-11.78-8.25-38.8-27.81-34.04-35.17
			l-0.01,0c0.01-0.02,0.03-0.03,0.04-0.05c0.01-0.02,0.02-0.04,0.03-0.05l0.01,0c5.29-6.99,32.92,11.71,44.69,19.96
			c11.84,8.29,45.87,32.12,45.87,32.12L284.78,398.45z"/>
	</g>
	<g>
		<path class="st3" d="M309.17,398.16l0.07,0.1l5.33,7.61c0,0,34.03-23.83,45.87-32.12c11.78-8.25,38.8-27.81,34.04-35.17l0.01,0
			c-0.01-0.02-0.03-0.03-0.04-0.05c-0.01-0.02-0.02-0.04-0.03-0.05l-0.01,0c-5.29-6.99-32.92,11.71-44.69,19.96
			c-11.84,8.29-45.87,32.12-45.87,32.12L309.17,398.16z"/>
	</g>
	<g>
		<path class="st2" d="M308.87,464.56c-0.06,0.06-0.14,0.11-0.22,0.15c-0.38,0.17-0.83-0.01-1.01-0.4
			c-1.57-3.39-1.03-7.03,1.41-9.51c2.45-2.51,6.17-3.12,9.65-1.57c0.39,0.17,0.57,0.62,0.41,1.01c-0.16,0.38-0.6,0.55-0.99,0.38
			c-2.87-1.28-5.9-0.8-7.93,1.23c-0.01,0.01-0.03,0.03-0.04,0.04c-1.99,2.03-2.43,5.02-1.13,7.82
			C309.15,464.01,309.08,464.35,308.87,464.56z"/>
	</g>
	<g>
		<path class="st3" d="M291.05,528.37c-0.09,0.09-0.21,0.17-0.34,0.23c-0.58,0.25-1.27-0.03-1.55-0.62
			c-2.44-5.19-1.67-10.73,2-14.47c3.7-3.78,9.36-4.66,14.69-2.25c0.59,0.27,0.88,0.96,0.64,1.54c-0.24,0.58-0.91,0.83-1.51,0.57
			c-4.39-1.99-9.01-1.31-12.07,1.75c-0.02,0.02-0.04,0.04-0.06,0.06c-3.01,3.06-3.62,7.62-1.61,11.9
			C291.47,527.53,291.37,528.04,291.05,528.37z"/>
	</g>
	<g>
		<path class="st2" d="M323.33,490.39c-0.03,0.03-0.07,0.06-0.12,0.08c-0.21,0.09-0.45-0.01-0.55-0.22
			c-0.85-1.84-0.56-3.81,0.76-5.16c1.33-1.36,3.35-1.69,5.23-0.85c0.21,0.09,0.31,0.34,0.22,0.55c-0.09,0.21-0.33,0.3-0.54,0.21
			c-1.56-0.69-3.2-0.44-4.3,0.66c-0.01,0.01-0.01,0.01-0.02,0.02c-1.08,1.1-1.32,2.72-0.61,4.24
			C323.48,490.1,323.44,490.28,323.33,490.39z"/>
	</g>
	<g>
		<path class="st2" d="M270.26,461.94c-0.03,0.03-0.06,0.05-0.09,0.06c-0.16,0.07-0.34,0-0.42-0.16c-0.64-1.39-0.42-2.89,0.58-3.91
			c1.01-1.03,2.54-1.28,3.97-0.64c0.16,0.07,0.24,0.26,0.17,0.41c-0.07,0.16-0.25,0.23-0.41,0.16c-1.18-0.52-2.43-0.33-3.26,0.5
			c-0.01,0.01-0.01,0.01-0.02,0.02c-0.82,0.83-1,2.06-0.46,3.21C270.37,461.72,270.35,461.86,270.26,461.94z"/>
	</g>
	<g>
		<path class="st3" d="M291.36,483.1c-0.03,0.03-0.06,0.05-0.09,0.06c-0.16,0.07-0.34,0-0.42-0.16c-0.64-1.39-0.42-2.89,0.58-3.91
			c1.01-1.03,2.54-1.28,3.97-0.64c0.16,0.07,0.24,0.26,0.17,0.41c-0.07,0.16-0.25,0.23-0.41,0.16c-1.18-0.52-2.43-0.33-3.26,0.5
			c-0.01,0.01-0.01,0.01-0.02,0.02c-0.82,0.83-1,2.06-0.46,3.21C291.48,482.88,291.45,483.02,291.36,483.1z"/>
	</g>
	<g>
		<path class="st3" d="M270.89,500.44c-0.03,0.03-0.06,0.05-0.09,0.06c-0.16,0.07-0.34,0-0.42-0.16c-0.64-1.39-0.42-2.89,0.58-3.91
			c1.01-1.03,2.54-1.28,3.97-0.64c0.16,0.07,0.24,0.26,0.17,0.41c-0.07,0.16-0.25,0.23-0.41,0.16c-1.18-0.52-2.43-0.33-3.26,0.5
			c-0.01,0.01-0.01,0.01-0.02,0.02c-0.82,0.83-1,2.06-0.46,3.21C271.01,500.21,270.98,500.35,270.89,500.44z"/>
	</g>
</g>
<g>
	<g>
		<path class="st1" d="M275.5,413.29l-9.72,13.81l-23.86-0.97l16.41,11.55l-7.81,11.09l-42.67-30.04L220,401.47
			c1.67-2.38,3.48-4.21,5.43-5.49c1.95-1.28,3.93-2.07,5.95-2.37c2.02-0.3,4.02-0.19,6.02,0.34c2,0.53,3.9,1.43,5.71,2.71
			c3.25,2.28,5.33,4.92,6.24,7.91c0.92,2.99,0.66,6.26-0.78,9.82L275.5,413.29z M234.73,421.07l1.47-2.09
			c1.54-2.19,2.27-4.19,2.19-5.99c-0.08-1.81-0.97-3.31-2.67-4.5c-1.7-1.2-3.41-1.53-5.14-0.99c-1.73,0.53-3.36,1.89-4.9,4.08
			l-1.47,2.09L234.73,421.07z"/>
		<path d="M250.76,450.17l-44.31-31.19l12.73-18.08c1.74-2.47,3.65-4.4,5.7-5.75c2.06-1.36,4.2-2.21,6.35-2.53
			c2.14-0.32,4.3-0.2,6.42,0.37c2.1,0.56,4.13,1.52,6.03,2.86c3.41,2.4,5.64,5.24,6.62,8.43c0.86,2.79,0.76,5.83-0.28,9.05
			l27.47-1.12l-11.2,15.91l-21.01-0.85l14.45,10.17L250.76,450.17z M209.24,418.49l41.04,28.89l6.66-9.46l-18.37-12.93l26.71,1.09
			l8.24-11.71l-26.45,1.08l0.58-1.44c1.34-3.32,1.59-6.4,0.75-9.15c-0.85-2.76-2.82-5.24-5.86-7.38c-1.71-1.2-3.52-2.06-5.39-2.56
			c-1.86-0.49-3.75-0.6-5.62-0.32c-1.86,0.28-3.73,1.02-5.54,2.22c-1.83,1.21-3.57,2.97-5.16,5.23L209.24,418.49z M234.97,422.46
			l-12.16-8.56l2.05-2.91c1.66-2.36,3.49-3.86,5.43-4.46c2.03-0.62,4.06-0.24,6.01,1.13c1.96,1.38,3,3.15,3.09,5.28
			c0.09,2.03-0.71,4.25-2.37,6.61L234.97,422.46z M225.59,413.41l8.89,6.26l0.9-1.28c1.4-1.99,2.08-3.8,2.01-5.37
			c-0.07-1.49-0.8-2.71-2.25-3.73c-1.44-1.02-2.84-1.3-4.27-0.86c-1.5,0.46-2.98,1.71-4.38,3.7L225.59,413.41z"/>
	</g>
</g>
<g>
	<g>
		<path class="st0" d="M373.19,427.96c1.35-4.76,0.71-9.04-1.93-12.83c-1.16-1.67-2.54-3-4.13-4c-1.59-1-3.27-1.65-5.02-1.94
			c-1.75-0.3-3.55-0.24-5.4,0.18c-1.85,0.41-3.6,1.2-5.27,2.36c-1.7,1.19-3.07,2.57-4.1,4.16c-1.03,1.59-1.71,3.27-2.05,5.05
			c-0.34,1.78-0.32,3.58,0.05,5.4c0.37,1.82,1.12,3.55,2.26,5.18c2.48,3.56,6.22,5.7,11.23,6.43l-13.18,9.18l-1.19-0.86
			c-1.79-1.28-3.35-2.56-4.66-3.84c-1.31-1.28-2.47-2.64-3.47-4.08c-2.06-2.95-3.47-6.17-4.24-9.66c-0.77-3.48-0.86-6.97-0.27-10.44
			c0.59-3.47,1.84-6.8,3.75-9.99c1.91-3.19,4.52-5.93,7.81-8.22c3.29-2.29,6.74-3.78,10.34-4.46c3.6-0.68,7.12-0.68,10.54,0
			c3.42,0.68,6.64,1.99,9.66,3.94c3.01,1.95,5.56,4.42,7.65,7.41c1.19,1.7,2.17,3.5,2.96,5.4c0.79,1.9,1.44,4.02,1.94,6.36
			L373.19,427.96z"/>
		<path d="M345.63,448.37l-1.76-1.27c-1.82-1.3-3.43-2.63-4.77-3.94c-1.35-1.32-2.56-2.74-3.59-4.22c-2.12-3.04-3.6-6.41-4.39-10.01
			c-0.79-3.59-0.89-7.23-0.28-10.82c0.61-3.58,1.91-7.06,3.88-10.34c1.98-3.29,4.7-6.16,8.1-8.53c3.4-2.36,7.01-3.92,10.73-4.62
			c3.71-0.7,7.39-0.7,10.92,0c3.53,0.7,6.9,2.07,10.01,4.08c3.11,2.01,5.78,4.6,7.93,7.68c1.22,1.75,2.25,3.63,3.06,5.59
			c0.81,1.95,1.48,4.15,2,6.53l0.14,0.65l-16.13,11.24l0.76-2.69c1.27-4.5,0.69-8.42-1.79-11.98c-1.08-1.54-2.37-2.8-3.84-3.72
			c-1.48-0.92-3.04-1.53-4.66-1.8s-3.3-0.22-5.01,0.17c-1.71,0.38-3.37,1.13-4.92,2.21c-1.59,1.11-2.88,2.41-3.83,3.89
			c-0.96,1.47-1.6,3.05-1.9,4.69c-0.31,1.64-0.29,3.33,0.05,5.02c0.34,1.68,1.04,3.29,2.1,4.8c2.33,3.35,5.79,5.32,10.55,6.02
			l2.5,0.36L345.63,448.37z M359.07,396.08c-1.7,0-3.42,0.16-5.16,0.49c-3.45,0.65-6.8,2.1-9.96,4.3c-3.16,2.2-5.69,4.87-7.52,7.92
			c-1.84,3.07-3.06,6.31-3.62,9.64c-0.57,3.33-0.48,6.72,0.26,10.06c0.74,3.34,2.11,6.47,4.08,9.3c0.96,1.38,2.09,2.7,3.35,3.93
			c1.27,1.24,2.8,2.5,4.54,3.75l0.62,0.45l10.67-7.43c-4.12-1.05-7.33-3.19-9.55-6.38c-1.21-1.74-2.02-3.6-2.42-5.55
			c-0.39-1.94-0.41-3.89-0.05-5.79c0.36-1.9,1.09-3.72,2.19-5.41c1.09-1.69,2.56-3.18,4.37-4.44c1.77-1.23,3.66-2.08,5.62-2.52
			c1.96-0.44,3.91-0.51,5.79-0.19c1.88,0.32,3.69,1.02,5.39,2.08c1.7,1.07,3.19,2.51,4.42,4.27c2.33,3.34,3.2,7.07,2.62,11.13
			l10.66-7.42c-0.47-2.02-1.06-3.88-1.75-5.54c-0.76-1.82-1.72-3.58-2.86-5.21c-2-2.87-4.48-5.27-7.37-7.14
			c-2.9-1.87-6.03-3.15-9.31-3.8C362.43,396.24,360.76,396.08,359.07,396.08z"/>
	</g>
</g>
</svg>
