<?xml version="1.0" standalone="no"?>
<!DOCTYPE svg PUBLIC "-//W3C//DTD SVG 20010904//EN"
 "http://www.w3.org/TR/2001/REC-SVG-20010904/DTD/svg10.dtd">
<svg version="1.0" xmlns="http://www.w3.org/2000/svg"
 width="714.000000pt" height="459.000000pt" viewBox="0 0 714.000000 459.000000"
 preserveAspectRatio="xMidYMid meet">
<metadata>
Created by potrace 1.16, written by Peter Selinger 2001-2019
</metadata>
<g transform="translate(0.000000,459.000000) scale(0.100000,-0.100000)"
fill="red" stroke="none">
<path d="M3230 4536 c-25 -7 -57 -19 -72 -27 -22 -12 -2063 -1806 -2250 -1977
-66 -61 -84 -105 -68 -164 12 -42 213 -269 262 -294 22 -11 43 -14 74 -9 40 6
117 72 1046 891 552 487 1013 892 1026 901 36 25 102 27 138 5 17 -11 476
-412 1020 -892 544 -480 999 -879 1010 -887 36 -23 88 -27 125 -9 36 17 221
215 252 269 22 39 18 105 -9 140 -22 29 -2246 1993 -2286 2020 -36 23 -132 47
-183 46 -22 0 -60 -6 -85 -13z"/>
<path d="M2379 2724 c-514 -454 -946 -834 -961 -843 l-28 -16 0 -820 c0 -796
1 -821 20 -852 41 -68 -114 -63 1919 -63 l1839 0 33 27 c61 52 59 17 59 896
l0 803 -32 24 c-17 13 -451 394 -965 847 -513 452 -936 823 -941 823 -5 0
-429 -372 -943 -826z m1202 -413 c18 -21 19 -42 19 -277 l0 -254 259 0 c257 0
260 0 275 -22 13 -19 16 -61 16 -254 l0 -233 -26 -20 c-25 -20 -39 -21 -275
-21 l-249 0 0 -249 c0 -236 -1 -250 -21 -275 l-20 -26 -233 0 c-193 0 -235 3
-254 16 -22 15 -22 18 -22 275 l0 259 -255 0 -256 0 -24 25 -25 24 0 229 c0
181 3 232 14 248 13 18 32 19 278 24 l263 5 5 262 c3 144 7 263 10 266 28 24
60 27 273 24 227 -2 229 -2 248 -26z"/>
</g>
</svg>
